<svg xmlns="http://www.w3.org/2000/svg" viewBox="0 0 323 79">
  <g fill="#FFF" fill-rule="evenodd">
    <path d="M128.57914 57H111V24h17.04496c2.94606 0 5.2365.81633 6.8714 2.44903 1.6349 1.63269 2.45235 3.61992 2.45235 5.96176 0 1.97903-.53417 3.65292-1.60252 5.02174-1.06835 1.36883-2.39568 2.21814-3.98202 2.54798 1.74821.26387 3.22122 1.16266 4.41907 2.6964C137.40109 44.21065 138 46 138 48.04498c0 2.6057-.81744 4.74961-2.45234 6.43178C133.91276 56.15893 131.58994 57 128.57914 57zm-2.23539-20c1.125 0 2.01562-.31666 2.67188-.95.65625-.63334.98437-1.48333.98437-2.55 0-1.03334-.32812-1.875-.98438-2.525-.65625-.65-1.54686-.975-2.67187-.975H118v7h8.34375zm.54844 13c1.28873 0 2.29554-.30701 3.02045-.92105C130.63755 48.4649 131 47.60527 131 46.5c0-1.01316-.36245-1.84978-1.08736-2.50987-.72491-.66009-1.73172-.99013-3.02045-.99013H118v7h8.8922zm32.1322 7c-4.94311 0-9.01624-1.59322-12.21951-4.77971C143.6016 49.0338 142 44.96041 142 40s1.60161-9.0338 4.80488-12.22029C150.00815 24.59322 154.08128 23 159.02439 23c4.9106 0 8.96746 1.60143 12.17073 4.80435C174.3984 31.00726 176 35.07244 176 40c0 4.92756-1.60161 8.99274-4.80488 12.19565C167.99185 55.39857 163.93498 57 159.0244 57zm-7.25896-8.9726C153.60906 50.00914 156.0288 51 159.0247 51c2.9959 0 5.4074-.99086 7.23457-2.9726C168.08643 46.04565 169 43.53654 169 40.5c0-3.03654-.91357-5.54565-2.74074-7.5274C164.43209 30.99086 162.02059 30 159.02469 30c-3.02882 0-5.45678.99086-7.28395 2.9726C149.91357 34.95435 149 37.46346 149 40.5c0 3.03654.9218 5.54565 2.76543 7.5274zM201 57h-21V24h7.06588v26.8156H201V57zm14.5188 0h-6.98872V30.1844H199V24h26v6.1844h-9.4812V57zm29.74237 0c-4.61858 0-8.48338-1.585-11.5945-4.75507C230.55554 49.07486 229 44.99326 229 40s1.55554-9.07486 4.66667-12.24493C236.77779 24.58501 240.64259 23 245.26117 23c4.81102 0 8.70789 1.93814 11.69072 5.8145l-2.30928 1.52753c-1.02635-1.44542-2.37341-2.60338-4.04124-3.47391-1.66782-.87054-3.44787-1.3058-5.3402-1.3058-3.81674 0-6.99999 1.34685-9.54983 4.04058-2.54984 2.69373-3.82474 6.1594-3.82474 10.3971 0 4.20485 1.28292 7.6623 3.8488 10.37246 2.56587 2.71016 5.7411 4.06522 9.52577 4.06522 1.89233 0 3.67238-.43526 5.3402-1.3058 1.66782-.87053 3.0149-2.0285 4.04124-3.4739L257 51.13622C253.8568 55.04543 249.9439 57 245.26117 57zM293 57h-2.78846V27.56222L278.52884 57h-1.05769l-11.73077-29.43778V57H263V24h4.08654L278 51.45877 288.86539 24H293v33zm18.66736 0c-4.94112 0-8.8302-1.74105-11.66736-5.22319l1.76923-2.11884c2.70965 3.18649 6.04087 4.77971 9.99376 4.77971 2.9328 0 5.06063-.66521 6.38358-1.99565 1.32295-1.33044 1.9844-2.84975 1.9844-4.55797 0-1.31402-.35065-2.4227-1.05197-3.32609-.70132-.90339-1.6178-1.60145-2.74948-2.0942-1.13167-.49276-2.3749-.93623-3.72973-1.33044-1.35482-.3942-2.70962-.81304-4.06445-1.25652-1.35482-.44348-2.59805-.96908-3.72973-1.57681-1.13167-.60773-2.04816-1.46183-2.74948-2.56232-.70132-1.10049-1.05197-2.4227-1.05197-3.96667 0-2.62803 1.00415-4.74685 3.01247-6.35652C306.02496 23.80482 308.51142 23 311.4761 23c4.62234 0 8.22452 1.54395 10.80665 4.63188l-1.81704 2.06957c-2.23148-2.75943-5.2758-4.13913-9.13306-4.13913-2.13584 0-3.91302.56666-5.3316 1.7s-2.12786 2.58695-2.12786 4.36087c0 1.11691.35066 2.07777 1.05198 2.8826.70132.80484 1.6178 1.42899 2.74948 1.87247 1.13167.44348 2.3749.8541 3.72973 1.23188 1.35482.37778 2.70962.80483 4.06445 1.28116 1.35482.47634 2.59805 1.043 3.72973 1.7 1.13167.65701 2.04816 1.58502 2.74947 2.78406C322.64934 44.5744 323 46.0116 323 47.68696c0 2.49663-.90852 4.67293-2.72557 6.52898C318.45737 56.072 315.58838 57 311.66736 57zM22.4439 78.14003L0 38.98236 22.75 0l45.19015.17305L90.3848 39.33448 67.63857 78.32135l-45.18714-.17305-.00752-.00827zm4.97036-7.58863l.00588.00667 35.31413.13936 17.77638-31.39679L62.96997 7.76328l-35.31649-.13935L9.87415 39.01708 27.41426 70.5514z"/>
    <path fill-rule="nonzero" d="M31.58678 31.6h7.52066v15.04762h-7.52066z"/>
    <path fill-rule="nonzero" d="M37.5657 35.3619h22.56198v7.52381H37.5657z"/>
  </g>
</svg>