<svg width="21" height="15" xmlns="http://www.w3.org/2000/svg" xmlns:xlink="http://www.w3.org/1999/xlink"><defs><linearGradient x1="50%" y1="0%" x2="50%" y2="100%" id="a"><stop stop-color="#FFF" offset="0%"/><stop stop-color="#F0F0F0" offset="100%"/></linearGradient><linearGradient x1="50%" y1="0%" x2="50%" y2="100%" id="b"><stop stop-color="#E82739" offset="0%"/><stop stop-color="#CA1A2B" offset="100%"/></linearGradient><linearGradient x1="50%" y1="0%" x2="50%" y2="100%" id="c"><stop stop-color="#E6101E" offset="0%"/><stop stop-color="#CA0814" offset="100%"/></linearGradient><linearGradient x1="50%" y1="0%" x2="50%" y2="100%" id="e"><stop stop-color="#FFD148" offset="0%"/><stop stop-color="#FFCB2F" offset="100%"/></linearGradient><path d="M9 3.75L10 4l.5-.5.5.5 1-.25-.404 1.009a.4.4 0 0 1-.341.241h-1.51a.39.39 0 0 1-.341-.241L9 3.75zM10.5 3a.5.5 0 1 1 0-1 .5.5 0 0 1 0 1z" id="d"/></defs><g fill="none" fill-rule="evenodd"><path fill="url(#a)" d="M0 0h21v15H0z"/><path d="M9 6H0v3h9v6h3V9h9V6h-9V0H9v6z" fill="url(#b)"/><path fill="url(#a)" d="M11.516 9.26L10.5 11 9.484 9.26l-2.015-.01.998-1.75-.998-1.75 2.015-.01L10.5 4l1.016 1.74 2.015.01-.998 1.75.998 1.75z"/><path d="M9.55 7.006a.656.656 0 0 1 .425-.664l.55-.184c.263-.087.475.063.475.35V7.5s.321-1.037.5-.5c.179.537-.128 1.526-.128 1.526a.671.671 0 0 1-.63.474h-.484c-.28 0-.531-.23-.559-.506l-.148-1.488z" fill="url(#c)"/><path d="M10.5 2.908c-.511 0-.967.304-1.168.763l-.1.229.457.201.1-.229a.775.775 0 0 1 1.418-.005l.102.228.456-.205-.102-.228a1.275 1.275 0 0 0-1.164-.754z" fill="url(#a)" fill-rule="nonzero"/><mask id="f" fill="#fff"><use xlink:href="#d"/></mask><use fill="url(#e)" xlink:href="#d"/><circle fill="#5169E2" mask="url(#f)" cx="10.5" cy="4.5" r="1"/><circle fill="#D34D43" mask="url(#f)" cx="11.5" cy="4.5" r="1"/><circle fill="#D34D43" mask="url(#f)" cx="9.5" cy="4.5" r="1"/></g></svg>