<svg width="1117" height="256" xmlns="http://www.w3.org/2000/svg"><g><path d="M324.992 204.667h54.45c31.725 0 56.925-13.275 56.925-43.2 0-19.575-11.475-30.6-26.325-34.425v-.9c11.925-4.5 19.125-18.675 19.125-31.725 0-28.125-23.625-36.45-54-36.45h-50.175zm33.075-87.975V83.617h15.75c15.525 0 22.95 4.275 22.95 15.75 0 10.575-6.975 17.325-23.175 17.325zm0 62.325v-37.8h18.675c18.225 0 27.225 5.175 27.225 18 0 13.5-9.225 19.8-27.225 19.8zm148.275 28.35c28.125 0 54.225-21.375 54.225-58.5s-26.1-58.5-54.225-58.5c-28.35 0-54.45 21.375-54.45 58.5s26.1 58.5 54.45 58.5zm0-26.775c-13.725 0-20.475-12.375-20.475-31.725s6.75-31.725 20.475-31.725c13.5 0 20.475 12.375 20.475 31.725s-6.975 31.725-20.475 31.725zm107.325 26.775c7.425 0 13.05-1.125 16.65-2.7l-4.05-24.525c-1.8.45-2.7.45-4.05.45-2.7 0-5.85-2.25-5.85-9.225V46.942h-33.075v123.075c0 22.5 7.65 37.35 30.375 37.35zm76.95 0c10.8 0 18.9-2.25 24.75-4.05l-5.175-24.075c-2.925 1.125-6.975 2.25-10.575 2.25-8.775 0-14.4-5.175-14.4-17.775v-44.775h26.775V93.067h-26.775v-29.7h-27.45l-3.825 29.7-17.1 1.35v24.525h15.3v45.225c0 25.875 10.8 43.2 38.475 43.2z" fill="#fff"/><path d="M791.167 207.367c16.65 0 27.9-6.75 36.225-12.825l-10.35-15.3c-5.625 4.5-12.375 8.55-20.925 8.55-14.85 0-22.275-9.675-22.275-26.325 0-27.45 17.325-50.4 37.125-50.4 7.425 0 11.925 2.7 17.1 8.55l13.5-14.625c-6.075-7.2-15.525-13.5-29.025-13.5-34.425 0-63.45 31.275-63.45 70.875 0 28.575 17.775 45 42.075 45zm54.225-2.7h24.3l14.85-75.375c11.025-11.925 20.475-17.1 26.325-17.1 8.775 0 13.275 4.725 13.275 14.175 0 3.375-.675 6.525-1.8 11.7l-13.275 66.6h24.075l15.075-75.375c11.25-11.925 20.7-17.1 26.325-17.1 9 0 13.5 4.725 13.5 14.175 0 3.375-.675 6.525-1.8 11.7l-13.5 66.6h24.3l13.95-69.75c1.125-5.85 1.8-10.35 1.8-15.525 0-17.775-7.875-27.9-26.1-27.9-11.925 0-25.2 8.1-38.25 20.475-2.25-11.925-8.55-20.475-25.65-20.475-11.925 0-24.75 8.325-36 18.225h-.9l1.125-15.525h-19.575zm215.325 2.7c25.425 0 43.875-13.95 43.875-35.325 0-13.5-8.1-22.275-24.525-31.05-9.45-5.4-18.9-9.225-18.9-17.325 0-7.65 7.425-13.95 17.55-13.95 8.775 0 15.525 4.725 21.15 10.35l13.5-12.825c-8.55-9-20.25-15.75-34.65-15.75-22.05 0-40.275 14.4-40.275 34.425 0 13.275 9 22.5 23.625 30.6 13.95 7.65 19.8 11.475 19.8 18.45 0 8.1-9 14.4-19.35 14.4-9.9 0-18.9-5.4-26.1-14.85l-14.4 11.7c8.325 12.6 24.75 21.15 38.7 21.15z" fill="#507aad"/></g><g stroke="#242f3c"><path d="M3.179 127.821c0-69.035 55.964-125 125-125 69.035 0 125 55.965 125 125 0 69.036-55.965 125-125 125-69.036 0-125-55.964-125-125z" fill="#3c5a7e" stroke-width="5"/><path d="M68.246 187.754l34.827 33.762 47.043-11.825 46.652-13.28 13.28-46.653 11.826-47.042-33.763-34.827-34.827-33.763-47.042 11.826-46.653 13.28-13.28 46.652-11.825 47.043 33.762 34.827z" stroke-linejoin="bevel" fill="#242f3c" stroke-width="6"/><path d="M63.02 174.903l27.52 36.867 45.834-3.98 45.687-5.399 19.47-41.682 18.168-42.267-26.362-37.703-27.52-36.866-45.833 3.979-45.688 5.4-19.47 41.682L36.658 137.2l26.363 37.703z" fill="#fff" stroke-width="2"/><path d="M90.179 129.821c0-22.091 17.908-40 40-40 22.091 0 40 17.909 40 40 0 22.092-17.909 40-40 40-22.092 0-40-17.908-40-40z" fill="none" stroke-width="8"/><path d="M88.179 127.821c0-22.091 17.908-40 40-40 22.091 0 40 17.909 40 40 0 22.092-17.909 40-40 40-22.092 0-40-17.908-40-40z" fill="#3c5a7e" stroke-width="2"/></g></svg>