<svg width="658" height="194" xmlns="http://www.w3.org/2000/svg"><path d="M263.992 173.667h54.45c31.725 0 56.925-13.275 56.925-43.2 0-19.575-11.475-30.6-26.325-34.425v-.9c11.925-4.5 19.125-18.675 19.125-31.725 0-28.125-23.625-36.45-54-36.45h-50.175zm33.075-87.975V52.617h15.75c15.525 0 22.95 4.275 22.95 15.75 0 10.575-6.975 17.325-23.175 17.325zm0 62.325v-37.8h18.675c18.225 0 27.225 5.175 27.225 18 0 13.5-9.225 19.8-27.225 19.8zm148.275 28.35c28.125 0 54.225-21.375 54.225-58.5s-26.1-58.5-54.225-58.5c-28.35 0-54.45 21.375-54.45 58.5s26.1 58.5 54.45 58.5zm0-26.775c-13.725 0-20.475-12.375-20.475-31.725s6.75-31.725 20.475-31.725c13.5 0 20.475 12.375 20.475 31.725s-6.975 31.725-20.475 31.725zm107.325 26.775c7.425 0 13.05-1.125 16.65-2.7l-4.05-24.525c-1.8.45-2.7.45-4.05.45-2.7 0-5.85-2.25-5.85-9.225V15.942h-33.075v123.075c0 22.5 7.65 37.35 30.375 37.35zm76.95 0c10.8 0 18.9-2.25 24.75-4.05l-5.175-24.075c-2.925 1.125-6.975 2.25-10.575 2.25-8.775 0-14.4-5.175-14.4-17.775V87.942h26.775V62.067h-26.775v-29.7h-27.45l-3.825 29.7-17.1 1.35v24.525h15.3v45.225c0 25.875 10.8 43.2 38.475 43.2z" fill="#fff" style="fill:rgba(255, 255, 255, 1.000000);stroke-width:0.000000px;stroke:rgba(0, 0, 0, 1.000000)"/><g stroke="#242f3c"><path d="M37.246 156.754l34.827 33.762 47.043-11.825 46.652-13.28 13.28-46.653 11.826-47.042-33.763-34.827-34.827-33.763-47.042 11.826-46.653 13.28-13.28 46.652-11.825 47.043 33.762 34.827z" stroke-linejoin="bevel" fill="#242f3c" stroke-width="6"/><path d="M32.02 143.903l27.52 36.867 45.834-3.98 45.687-5.399 19.47-41.682L188.7 87.442 162.337 49.74l-27.52-36.866-45.833 3.979-45.688 5.4-19.47 41.682L5.658 106.2l26.363 37.703z" fill="#fff" stroke-width="2"/><path d="M59.179 98.821c0-22.091 17.908-40 40-40 22.091 0 40 17.909 40 40 0 22.092-17.909 40-40 40-22.092 0-40-17.908-40-40z" fill="none" stroke-width="8"/><path d="M57.179 96.821c0-22.091 17.908-40 40-40 22.091 0 40 17.909 40 40 0 22.092-17.909 40-40 40-22.092 0-40-17.908-40-40z" fill="#3c5a7e" stroke-width="2"/></g></svg>