<?xml version="1.0" encoding="UTF-8"?>
<svg width="1114px" height="256px" viewBox="0 0 1114 256" version="1.1" xmlns="http://www.w3.org/2000/svg" xmlns:xlink="http://www.w3.org/1999/xlink">
    <!-- Generator: Sketch 55.2 (78181) - https://sketchapp.com -->
    <title>bolt_logo_login</title>
    <desc>Created with Sketch.</desc>
    <g id="Page-1" stroke="none" stroke-width="1" fill="none" fill-rule="evenodd">
        <g id="bolt_logo_login" transform="translate(3.000000, 2.000000)">
            <g id="Group" transform="translate(321.000000, 44.000000)" fill-rule="nonzero">
                <path d="M0.992,158.667 L55.442,158.667 C87.167,158.667 112.367,145.392 112.367,115.467 C112.367,95.892 100.892,84.867 86.042,81.042 L86.042,80.142 C97.967,75.642 105.167,61.467 105.167,48.417 C105.167,20.292 81.542,11.967 51.167,11.967 L0.992,11.967 L0.992,158.667 Z M34.067,70.692 L34.067,37.617 L49.817,37.617 C65.342,37.617 72.767,41.892 72.767,53.367 C72.767,63.942 65.792,70.692 49.592,70.692 L34.067,70.692 Z M34.067,133.017 L34.067,95.217 L52.742,95.217 C70.967,95.217 79.967,100.392 79.967,113.217 C79.967,126.717 70.742,133.017 52.742,133.017 L34.067,133.017 Z M182.342,161.367 C210.467,161.367 236.567,139.992 236.567,102.867 C236.567,65.742 210.467,44.367 182.342,44.367 C153.992,44.367 127.892,65.742 127.892,102.867 C127.892,139.992 153.992,161.367 182.342,161.367 Z M182.342,134.592 C168.617,134.592 161.867,122.217 161.867,102.867 C161.867,83.517 168.617,71.142 182.342,71.142 C195.842,71.142 202.817,83.517 202.817,102.867 C202.817,122.217 195.842,134.592 182.342,134.592 Z M289.667,161.367 C297.092,161.367 302.717,160.242 306.317,158.667 L302.267,134.142 C300.467,134.592 299.567,134.592 298.217,134.592 C295.517,134.592 292.367,132.342 292.367,125.367 L292.367,0.942 L259.292,0.942 L259.292,124.017 C259.292,146.517 266.942,161.367 289.667,161.367 Z M366.617,161.367 C377.417,161.367 385.517,159.117 391.367,157.317 L386.192,133.242 C383.267,134.367 379.217,135.492 375.617,135.492 C366.842,135.492 361.217,130.317 361.217,117.717 L361.217,72.942 L387.992,72.942 L387.992,47.067 L361.217,47.067 L361.217,17.367 L333.767,17.367 L329.942,47.067 L312.842,48.417 L312.842,72.942 L328.142,72.942 L328.142,118.167 C328.142,144.042 338.942,161.367 366.617,161.367 L366.617,161.367 Z" id="Shape" fill="#242F3C"></path>
                <path d="M467.167,161.367 C483.817,161.367 495.067,154.617 503.392,148.542 L493.042,133.242 C487.417,137.742 480.667,141.792 472.117,141.792 C457.267,141.792 449.842,132.117 449.842,115.467 C449.842,88.017 467.167,65.067 486.967,65.067 C494.392,65.067 498.892,67.767 504.067,73.617 L517.567,58.992 C511.492,51.792 502.042,45.492 488.542,45.492 C454.117,45.492 425.092,76.767 425.092,116.367 C425.092,144.942 442.867,161.367 467.167,161.367 L467.167,161.367 Z M521.392,158.667 L545.692,158.667 L560.542,83.292 C571.567,71.367 581.017,66.192 586.867,66.192 C595.642,66.192 600.142,70.917 600.142,80.367 C600.142,83.742 599.467,86.892 598.342,92.067 L585.067,158.667 L609.142,158.667 L624.217,83.292 C635.467,71.367 644.917,66.192 650.542,66.192 C659.542,66.192 664.042,70.917 664.042,80.367 C664.042,83.742 663.367,86.892 662.242,92.067 L648.742,158.667 L673.042,158.667 L686.992,88.917 C688.117,83.067 688.792,78.567 688.792,73.392 C688.792,55.617 680.917,45.492 662.692,45.492 C650.767,45.492 637.492,53.592 624.442,65.967 C622.192,54.042 615.892,45.492 598.792,45.492 C586.867,45.492 574.042,53.817 562.792,63.717 L561.892,63.717 L563.017,48.192 L543.442,48.192 L521.392,158.667 Z M736.717,161.367 C762.142,161.367 780.592,147.417 780.592,126.042 C780.592,112.542 772.492,103.767 756.067,94.992 C746.617,89.592 737.167,85.767 737.167,77.667 C737.167,70.017 744.592,63.717 754.717,63.717 C763.492,63.717 770.242,68.442 775.867,74.067 L789.367,61.242 C780.817,52.242 769.117,45.492 754.717,45.492 C732.667,45.492 714.442,59.892 714.442,79.917 C714.442,93.192 723.442,102.417 738.067,110.517 C752.017,118.167 757.867,121.992 757.867,128.967 C757.867,137.067 748.867,143.367 738.517,143.367 C728.617,143.367 719.617,137.967 712.417,128.517 L698.017,140.217 C706.342,152.817 722.767,161.367 736.717,161.367 L736.717,161.367 Z" id="Shape" fill="#3C5A7E"></path>
            </g>
            <g id="Group" stroke="#242F3C">
                <path d="M0.179,125.821 C0.179,56.786 56.143,0.821 125.179,0.821 C194.214,0.821 250.179,56.786 250.179,125.821 C250.179,194.857 194.214,250.821 125.179,250.821 C56.143,250.821 0.179,194.857 0.179,125.821 Z" id="Path" stroke-width="5" fill="#3C5A7E" fill-rule="nonzero"></path>
                <polygon id="Path" stroke-width="6" fill="#242F3C" fill-rule="nonzero" stroke-linejoin="bevel" points="65.246 185.754 100.073 219.516 147.116 207.691 193.768 194.411 207.048 147.758 218.874 100.716 185.111 65.889 150.284 32.126 103.242 43.952 56.589 57.232 43.309 103.884 31.484 150.927 65.246 185.754"></polygon>
                <polygon id="Path" stroke-width="2" fill="#FFFFFF" fill-rule="nonzero" points="60.02 172.903 87.54 209.77 133.374 205.79 179.061 200.391 198.531 158.709 216.699 116.442 190.337 78.739 162.817 41.873 116.984 45.852 71.296 51.252 51.826 92.934 33.658 135.2 60.021 172.903"></polygon>
                <path d="M87.179,127.821 C87.179,105.73 105.087,87.821 127.179,87.821 C149.27,87.821 167.179,105.73 167.179,127.821 C167.179,149.913 149.27,167.821 127.179,167.821 C105.087,167.821 87.179,149.913 87.179,127.821 Z" id="Path" stroke-width="8"></path>
                <path d="M85.179,125.821 C85.179,103.73 103.087,85.821 125.179,85.821 C147.27,85.821 165.179,103.73 165.179,125.821 C165.179,147.913 147.27,165.821 125.179,165.821 C103.087,165.821 85.179,147.913 85.179,125.821 Z" id="Path" stroke-width="2" fill="#3C5A7E" fill-rule="nonzero"></path>
            </g>
        </g>
    </g>
</svg>