<svg width="1117px" height="256px" xmlns="http://www.w3.org/2000/svg" xmlns:xlink="http://www.w3.org/1999/xlink">
<g style="">  <path d="M324.991667,204.666667 L379.441667,204.666667 C411.166667,204.666667,436.366667,191.391667,436.366667,161.466667 C436.366667,141.891667,424.891667,130.866667,410.041667,127.041667 L410.041667,126.141667 C421.966667,121.641667,429.166667,107.466667,429.166667,94.416667 C429.166667,66.291667,405.541667,57.966667,375.166667,57.966667 L324.991667,57.966667 Z M358.066667,116.691667 L358.066667,83.616667 L373.816667,83.616667 C389.341667,83.616667,396.766667,87.891667,396.766667,99.366667 C396.766667,109.941667,389.791667,116.691667,373.591667,116.691667 Z M358.066667,179.016667 L358.066667,141.216667 L376.741667,141.216667 C394.966667,141.216667,403.966667,146.391667,403.966667,159.216667 C403.966667,172.716667,394.741667,179.016667,376.741667,179.016667 Z M506.341667,207.366667 C534.466667,207.366667,560.566667,185.991667,560.566667,148.866667 C560.566667,111.741667,534.466667,90.366667,506.341667,90.366667 C477.991667,90.366667,451.891667,111.741667,451.891667,148.866667 C451.891667,185.991667,477.991667,207.366667,506.341667,207.366667 Z M506.341667,180.591667 C492.616667,180.591667,485.866667,168.216667,485.866667,148.866667 C485.866667,129.516667,492.616667,117.141667,506.341667,117.141667 C519.841667,117.141667,526.816667,129.516667,526.816667,148.866667 C526.816667,168.216667,519.841667,180.591667,506.341667,180.591667 Z M613.666667,207.366667 C621.091667,207.366667,626.716667,206.241667,630.316667,204.666667 L626.266667,180.141667 C624.466667,180.591667,623.566667,180.591667,622.216667,180.591667 C619.516667,180.591667,616.366667,178.341667,616.366667,171.366667 L616.366667,46.941667 L583.291667,46.941667 L583.291667,170.016667 C583.291667,192.516667,590.941667,207.366667,613.666667,207.366667 Z M690.616667,207.366667 C701.416667,207.366667,709.516667,205.116667,715.366667,203.316667 L710.191667,179.241667 C707.266667,180.366667,703.216667,181.491667,699.616667,181.491667 C690.841667,181.491667,685.216667,176.316667,685.216667,163.716667 L685.216667,118.941667 L711.991667,118.941667 L711.991667,93.066667 L685.216667,93.066667 L685.216667,63.366667 L657.766667,63.366667 L653.941667,93.066667 L636.841667,94.416667 L636.841667,118.941667 L652.141667,118.941667 L652.141667,164.166667 C652.141667,190.041667,662.941667,207.366667,690.616667,207.366667 Z " style="fill: rgba(255, 255, 255, 1.000000); stroke-width: 0.000000px; stroke: rgba(36, 47, 60, 1.000000); " fill="#feffff" stroke="#2f3d4c" stroke-width="0.000000" />
  <path d="M791.166667,207.366667 C807.816667,207.366667,819.066667,200.616667,827.391667,194.541667 L817.041667,179.241667 C811.416667,183.741667,804.666667,187.791667,796.116667,187.791667 C781.266667,187.791667,773.841667,178.116667,773.841667,161.466667 C773.841667,134.016667,791.166667,111.066667,810.966667,111.066667 C818.391667,111.066667,822.891667,113.766667,828.066667,119.616667 L841.566667,104.991667 C835.491667,97.791667,826.041667,91.491667,812.541667,91.491667 C778.116667,91.491667,749.091667,122.766667,749.091667,162.366667 C749.091667,190.941667,766.866667,207.366667,791.166667,207.366667 Z M845.391667,204.666667 L869.691667,204.666667 L884.541667,129.291667 C895.566667,117.366667,905.016667,112.191667,910.866667,112.191667 C919.641667,112.191667,924.141667,116.916667,924.141667,126.366667 C924.141667,129.741667,923.466667,132.891667,922.341667,138.066667 L909.066667,204.666667 L933.141667,204.666667 L948.216667,129.291667 C959.466667,117.366667,968.916667,112.191667,974.541667,112.191667 C983.541667,112.191667,988.041667,116.916667,988.041667,126.366667 C988.041667,129.741667,987.366667,132.891667,986.241667,138.066667 L972.741667,204.666667 L997.041667,204.666667 L1010.991667,134.916667 C1012.116667,129.066667,1012.791667,124.566667,1012.791667,119.391667 C1012.791667,101.616667,1004.916667,91.491667,986.691667,91.491667 C974.766667,91.491667,961.491667,99.591667,948.441667,111.966667 C946.191667,100.041667,939.891667,91.491667,922.791667,91.491667 C910.866667,91.491667,898.041667,99.816667,886.791667,109.716667 L885.891667,109.716667 L887.016667,94.191667 L867.441667,94.191667 Z M1060.716667,207.366667 C1086.141667,207.366667,1104.591667,193.416667,1104.591667,172.041667 C1104.591667,158.541667,1096.491667,149.766667,1080.066667,140.991667 C1070.616667,135.591667,1061.166667,131.766667,1061.166667,123.666667 C1061.166667,116.016667,1068.591667,109.716667,1078.716667,109.716667 C1087.491667,109.716667,1094.241667,114.441667,1099.866667,120.066667 L1113.366667,107.241667 C1104.816667,98.241667,1093.116667,91.491667,1078.716667,91.491667 C1056.666667,91.491667,1038.441667,105.891667,1038.441667,125.916667 C1038.441667,139.191667,1047.441667,148.416667,1062.066667,156.516667 C1076.016667,164.166667,1081.866667,167.991667,1081.866667,174.966667 C1081.866667,183.066667,1072.866667,189.366667,1062.516667,189.366667 C1052.616667,189.366667,1043.616667,183.966667,1036.416667,174.516667 L1022.016667,186.216667 C1030.341667,198.816667,1046.766667,207.366667,1060.716667,207.366667 Z " style="fill: rgba(80, 122, 173, 1.000000); stroke-width: 0.000000px; stroke: rgba(36, 47, 60, 1.000000); " fill="#618ebb" stroke="#2f3d4c" stroke-width="0.000000" />
</g><g style="">  <path d="M3.178716,127.821284 C3.178716,58.785691,59.143122,2.821284,128.178716,2.821284 C197.214309,2.821284,253.178716,58.785691,253.178716,127.821284 C253.178716,196.856878,197.214309,252.821284,128.178716,252.821284 C59.143122,252.821284,3.178716,196.856878,3.178716,127.821284 Z " style="fill: rgba(60, 90, 126, 1.000000); stroke-width: 5.000000px; stroke: rgba(36, 47, 60, 1.000000); " fill="#4c6d91" stroke="#2f3d4c" stroke-width="5.000000" />
  <path d="M68.246269,187.753731 L103.073269,221.516089 L150.115520,209.690530 L196.768076,196.410639 L210.047961,149.758078 L221.873525,102.715843 L188.111157,67.888833 L153.284165,34.126483 L106.241908,45.952041 L59.589357,59.231927 L46.309472,105.884477 L34.483903,152.926712 L68.246269,187.753731 Z " stroke-linejoin="bevel" style="fill: rgba(36, 47, 60, 1.000000); stroke-width: 6.000000px; stroke: rgba(36, 47, 60, 1.000000); " fill="#2f3d4c" stroke="#2f3d4c" stroke-width="6.000000" />
  <path d="M63.020626,174.903239 L90.540702,211.769961 L136.373842,207.790820 L182.061398,202.391094 L201.531932,160.708866 L219.699411,118.442423 L193.336801,80.739325 L165.816731,43.872611 L119.983586,47.851751 L74.296035,53.251473 L54.825508,94.933696 L36.658020,137.200132 L63.020626,174.903239 Z " style="fill: rgba(255, 255, 255, 1.000000); stroke-width: 2.000000px; stroke: rgba(36, 47, 60, 1.000000); " fill="#ffffff" stroke="#2f3d4c" stroke-width="2.000000" />
  <path d="M90.178716,129.821284 C90.178716,107.729894,108.087326,89.821284,130.178716,89.821284 C152.270106,89.821284,170.178716,107.729894,170.178716,129.821284 C170.178716,151.912674,152.270106,169.821284,130.178716,169.821284 C108.087326,169.821284,90.178716,151.912674,90.178716,129.821284 Z " style="fill: none; stroke-width: 8.000000px; stroke: rgba(36, 47, 60, 1.000000); " fill="none" stroke="#2f3d4c" stroke-width="8.000000" />
  <path d="M88.178716,127.821284 C88.178716,105.729894,106.087326,87.821284,128.178716,87.821284 C150.270106,87.821284,168.178716,105.729894,168.178716,127.821284 C168.178716,149.912674,150.270106,167.821284,128.178716,167.821284 C106.087326,167.821284,88.178716,149.912674,88.178716,127.821284 Z " style="fill: rgba(60, 90, 126, 1.000000); stroke-width: 2.000000px; stroke: rgba(36, 47, 60, 1.000000); " fill="#4c6d91" stroke="#2f3d4c" stroke-width="2.000000" />
</g></svg>